<svg width="198" height="40" viewBox="0 0 198 40" fill="none" xmlns="http://www.w3.org/2000/svg">
<path d="M9.29289 19.2929C8.90237 19.6834 8.90237 20.3166 9.29289 20.7071L15.6569 27.0711C16.0474 27.4616 16.6805 27.4616 17.0711 27.0711C17.4616 26.6805 17.4616 26.0474 17.0711 25.6569L11.4142 20L17.0711 14.3431C17.4616 13.9526 17.4616 13.3195 17.0711 12.9289C16.6805 12.5384 16.0474 12.5384 15.6569 12.9289L9.29289 19.2929ZM30 19L10 19L10 21L30 21L30 19Z" fill="black"/>
<circle cx="20" cy="20" r="19.5" stroke="black"/>
<path d="M188.707 20.7071C189.098 20.3166 189.098 19.6834 188.707 19.2929L182.343 12.9289C181.953 12.5384 181.319 12.5384 180.929 12.9289C180.538 13.3195 180.538 13.9526 180.929 14.3431L186.586 20L180.929 25.6569C180.538 26.0474 180.538 26.6805 180.929 27.0711C181.319 27.4616 181.953 27.4616 182.343 27.0711L188.707 20.7071ZM168 21L188 21V19L168 19V21Z" fill="black"/>
<circle cx="178" cy="20" r="19.5" stroke="black"/>
<circle cx="75" cy="20" r="3" fill="black"/>
<circle cx="87" cy="20" r="2.5" stroke="black"/>
<circle cx="99" cy="20" r="2.5" stroke="black"/>
<circle cx="111" cy="20" r="2.5" stroke="black"/>
<circle cx="123" cy="20" r="2.5" stroke="black"/>
</svg>
